<?xml version="1.0" encoding="UTF-8"?>
<svg width="336px" height="378px" viewBox="0 0 336 378" version="1.1" xmlns="http://www.w3.org/2000/svg">
    <title>Isologo</title>
    <defs>
        <linearGradient x1="0%" y1="49.9958991%" x2="100.009016%" y2="49.9958991%" id="linearGradient-1">
            <stop stop-color="#C58049" offset="0%"></stop>
            <stop stop-color="#9B5524" offset="100%"></stop>
        </linearGradient>
    </defs>
    <g stroke="none" stroke-width="1" fill="none" fill-rule="evenodd">
        <path d="M315.293922,339.430325 L260.617294,205.613692 C276.569046,191.910579 289.381758,176.230475 296.278589,157.98481 C297.440637,154.966504 298.391404,151.948197 299.296896,148.839341 C299.8251,146.998174 300.353303,145.172098 300.806049,143.330931 C317.587835,70.0313498 254.233575,0.610292913 173.252403,0.610292913 C74.7046854,0.610292913 0.529795315,81.9536617 0.529795315,188.122604 C0.529795315,289.748995 56.7004852,337.106229 56.7004852,337.106229 C52.1546446,347.485053 44.5389671,356.222542 34.8781269,362.143084 L34.8781269,362.807111 L71.8222024,362.807111 L71.8222024,362.173267 C66.5104129,358.16802 64.3836871,351.196747 66.555257,344.908552 C66.555257,344.908552 102.624023,374.155945 159.820938,376.238577 C183.967392,377.113886 242.945108,375.468908 241.918883,335.83854 C241.375588,314.98204 225.318196,298.713366 205.080448,302.365517 C191.42261,304.825437 180.043593,313.970907 177.734589,327.658928 C176.561246,335.992513 178.011769,344.484665 181.884761,351.956298 C184.43523,356.574308 182.594063,361.841253 175.606682,361.931802 C120.537674,362.656196 95.8026501,332.00529 81.2996858,301.822222 L93.5992861,265.919462 C94.2754816,264.406581 94.8453126,262.848371 95.3046295,261.256178 L96.4817691,257.468203 L158.025045,77.441293 L210.99633,208.375443 C225.052598,200.598444 238.337592,191.502594 250.671973,181.210681 L183.680653,17.3015296 C183.352945,16.49153 183.47377,15.5690294 183.999026,14.8707473 C184.524283,14.1724653 185.377108,13.800584 186.246214,13.8908429 C250.687065,21.7384407 307.280317,73.0496566 291.328566,141.127567 C286.514366,161.697328 273.324366,178.690395 255.214525,193.600831 C242.798915,203.566623 229.515595,212.400283 215.52379,219.995924 C211.796181,222.078556 207.978023,224.115913 204.144773,226.138178 C170.943398,243.599083 133.923865,258.901899 103.620065,275.940241 L95.9384739,295.136672 C115.6782,278.415253 187.574269,250.390274 220.866193,233.14065 L248.121504,300.222519 C266.850098,346.553529 245.405028,362.761837 245.405028,362.761837 L335.290205,362.761837 L335.290205,362.127992 C326.310742,356.996871 320.636325,351.729925 315.293922,339.430325 Z M166.913959,17.0902481 L74.2670309,287.123068 C65.6648565,262.810606 58.6322016,226.409826 58.6322016,188.107513 C58.6322016,80.746339 102.4882,19.6709005 164.363489,13.8002937 C165.199589,13.734641 166.012572,14.0942802 166.526415,14.7571068 C167.040258,15.4199335 167.185925,16.2968957 166.913959,17.0902481 Z" fill="url(#linearGradient-1)" fill-rule="nonzero"></path>
    </g>
</svg>
