<svg xmlns="http://www.w3.org/2000/svg" viewBox="0 0 64 64" fill="none">
  <rect width="64" height="64" rx="12" fill="#FF385C"/>
  <path d="M32 16c-1.8 0-3.4.9-4.7 2.3-1.3 1.4-2.3 3.4-3.2 5.5-.9 2.1-1.7 4.4-2.3 6.4-.6 2-.9 3.6-.9 4.8 0 2.6 1.4 5 3.6 6.4 1.1.7 2.4 1 3.8 1 1.7 0 3.2-.6 4.7-1.9 1.5 1.3 3 1.9 4.7 1.9 1.4 0 2.7-.3 3.8-1 2.2-1.4 3.6-3.8 3.6-6.4 0-1.2-.3-2.8-.9-4.8-.6-2-1.4-4.3-2.3-6.4-.9-2.1-1.9-4.1-3.2-5.5C35.4 16.9 33.8 16 32 16zm0 3.5c.9 0 1.8.5 2.7 1.6.9 1.1 1.8 2.6 2.6 4.4.8 1.8 1.4 3.8 2 5.6.5 1.8.7 3.2.7 4.1 0 1.6-.8 3-2.2 3.8-.7.4-1.4.6-2.2.6-1 0-2-.4-3-1.2L32 37.2l-1.6 1.3c-1 .8-2 1.2-3 1.2-.8 0-1.5-.2-2.2-.6-1.4-.8-2.2-2.2-2.2-3.8 0-.9.2-2.3.7-4.1.6-1.8 1.2-3.8 2-5.6.8-1.8 1.7-3.3 2.6-4.4.9-1.1 1.8-1.6 2.7-1.6z" fill="white"/>
</svg>
