<?xml version="1.0" encoding="UTF-8"?>
<svg width="1827px" height="506px" viewBox="0 0 1827 506" version="1.1" xmlns="http://www.w3.org/2000/svg" xmlns:xlink="http://www.w3.org/1999/xlink">
    <!-- Generator: Sketch 50.2 (55047) - http://www.bohemiancoding.com/sketch -->
    <title>Artboard</title>
    <desc>Created with Sketch.</desc>
    <defs>
        <linearGradient x1="0%" y1="49.9958991%" x2="100.009016%" y2="49.9958991%" id="linearGradient-1">
            <stop stop-color="#C58049" offset="0%"></stop>
            <stop stop-color="#9B5524" offset="100%"></stop>
        </linearGradient>
    </defs>
    <g id="Artboard" stroke="none" stroke-width="1" fill="none" fill-rule="evenodd">
        <g id="02-color-white" transform="translate(39.000000, 69.000000)" fill-rule="nonzero">
            <path d="M604.91,250.3 L541.5,95.1 L535.73,95.1 L481.83,250.1 C479.959954,254.692669 476.6093,258.529028 472.31,261 L472.31,261.3 L489.77,261.3 L489.77,261 C487.26184,259.100789 486.257454,255.805276 487.28,252.83 L489.52,246.33 L489.46,246.46 L494,233.38 L573.93,233.38 L581,251.19 C581.729378,253.102504 581.646527,255.229857 580.770616,257.079843 C579.894704,258.929828 578.301634,260.342138 576.36,260.99 L576.36,261.34 L614.36,261.34 L614.36,261 C610.122162,258.565762 606.801804,254.806203 604.91,250.3 Z M495.73,228.17 L530.56,126.45 L571.77,228.17 L495.73,228.17 Z" id="Shape" fill="#393948"></path>
            <path d="M1090.61,250.3 L1027.2,95.1 L1021.43,95.1 L967.53,250.1 C965.654082,254.692159 962.300578,258.527751 958,261 L958,261.3 L975.46,261.3 L975.46,261 C972.95184,259.100789 971.947454,255.805276 972.97,252.83 L975.21,246.33 L975.14,246.46 L979.64,233.34 L1059.57,233.34 L1066.72,251.15 C1067.44938,253.062504 1067.36653,255.189857 1066.49062,257.039843 C1065.6147,258.889828 1064.02163,260.302138 1062.08,260.95 L1062.08,261.3 L1100.08,261.3 L1100.08,261 C1095.83231,258.572087 1092.50378,254.811231 1090.61,250.3 Z M981.43,228.17 L1016.26,126.45 L1057.47,228.17 L981.43,228.17 Z" id="Shape" fill="#393948"></path>
            <path d="M1712.55,250.3 L1649.14,95.1 L1643.37,95.1 L1589.47,250.1 C1587.59606,254.69338 1584.24205,258.529549 1579.94,261 L1579.94,261.3 L1597.41,261.3 L1597.41,261 C1594.90184,259.100789 1593.89745,255.805276 1594.92,252.83 L1597.16,246.33 L1597.09,246.46 L1601.59,233.34 L1681.52,233.34 L1688.67,251.15 C1689.41435,253.0724 1689.33574,255.216255 1688.4526,257.078979 C1687.56946,258.941704 1685.95945,260.359502 1684,261 L1684,261.35 L1722,261.35 L1722,261 C1717.75978,258.56868 1714.43861,254.808203 1712.55,250.3 Z M1603.37,228.17 L1638.2,126.45 L1679.41,228.17 L1603.37,228.17 Z" id="Shape" fill="#393948"></path>
            <path d="M1473.71,249.42 L1473.71,107 C1473.70413,102.145977 1476.21301,97.635295 1480.34,95.08 L1443.7,95.08 C1447.82699,97.635295 1450.33587,102.145977 1450.33,107 L1450.33,249.4 C1450.33587,254.254023 1447.82699,258.764705 1443.7,261.32 L1480.34,261.32 C1476.21906,258.768449 1473.71106,254.266908 1473.71,249.42 Z" id="Shape" fill="#393948"></path>
            <path d="M855.54,150.28 C852.97,134.68 838.11,91.57 793.79,91.57 C745.68,91.57 713.98,129.16 713.98,178.22 C713.98,225.08 737.53,264.87 790.86,264.87 C835.78,264.87 851,233.46 855.03,217.43 C856.020663,212.646778 853.01503,207.946538 848.257492,206.839082 C843.499954,205.731627 838.727547,208.621303 837.503964,213.350306 C836.280381,218.079309 839.052366,222.921022 843.75,224.26 C844.360912,224.404499 844.878736,224.807629 845.168661,225.364439 C845.458586,225.921248 845.491926,226.576644 845.26,227.16 C841.93,235.07 828.95,258.58 792.82,259.01 C770.12,259.28 740.82,240.01 740.82,178.22 C740.82,125.99 763.28,97.43 794.27,97.43 C831.69,97.43 845.72,133.43 846.95,148.22 C847.19,151.53 845.7,152.93 843.38,154.31 L843.38,154.46 L858.38,154.46 L858.38,154.31 C857.19,153.16 855.83,152.25 855.54,150.28 Z" id="Shape" fill="#393948"></path>
            <path d="M1341.24,150.28 C1338.66,134.68 1323.81,91.57 1279.49,91.57 C1231.37,91.57 1199.68,129.16 1199.68,178.22 C1199.68,225.08 1223.23,264.87 1276.56,264.87 C1321.48,264.87 1336.7,233.46 1340.73,217.43 C1341.72066,212.646778 1338.71503,207.946538 1333.95749,206.839082 C1329.19995,205.731627 1324.42755,208.621303 1323.20396,213.350306 C1321.98038,218.079309 1324.75237,222.921022 1329.45,224.26 C1330.06098,224.403845 1330.57859,224.807504 1330.86696,225.365022 C1331.15533,225.922541 1331.18566,226.578238 1330.95,227.16 C1327.63,235.07 1314.64,258.58 1278.52,259.01 C1255.82,259.28 1226.52,240.01 1226.52,178.22 C1226.52,125.99 1248.97,97.43 1279.97,97.43 C1317.39,97.43 1331.42,133.43 1332.65,148.22 C1332.89,151.53 1331.4,152.93 1329.08,154.31 L1329.08,154.46 L1344.08,154.46 L1344.08,154.31 C1342.89,153.16 1341.52,152.25 1341.24,150.28 Z" id="Shape" fill="#393948"></path>
            <path d="M315.293922,339.430325 L260.617294,205.613692 C276.569046,191.910579 289.381758,176.230475 296.278589,157.98481 C297.440637,154.966504 298.391404,151.948197 299.296896,148.839341 C299.8251,146.998174 300.353303,145.172098 300.806049,143.330931 C317.587835,70.0313498 254.233575,0.610292913 173.252403,0.610292913 C74.7046854,0.610292913 0.529795315,81.9536617 0.529795315,188.122604 C0.529795315,289.748995 56.7004852,337.106229 56.7004852,337.106229 C52.1546446,347.485053 44.5389671,356.222542 34.8781269,362.143084 L34.8781269,362.807111 L71.8222024,362.807111 L71.8222024,362.173267 C66.5104129,358.16802 64.3836871,351.196747 66.555257,344.908552 C66.555257,344.908552 102.624023,374.155945 159.820938,376.238577 C183.967392,377.113886 242.945108,375.468908 241.918883,335.83854 C241.375588,314.98204 225.318196,298.713366 205.080448,302.365517 C191.42261,304.825437 180.043593,313.970907 177.734589,327.658928 C176.561246,335.992513 178.011769,344.484665 181.884761,351.956298 C184.43523,356.574308 182.594063,361.841253 175.606682,361.931802 C120.537674,362.656196 95.8026501,332.00529 81.2996858,301.822222 L93.5992861,265.919462 C94.2754816,264.406581 94.8453126,262.848371 95.3046295,261.256178 L96.4817691,257.468203 L158.025045,77.441293 L210.99633,208.375443 C225.052598,200.598444 238.337592,191.502594 250.671973,181.210681 L183.680653,17.3015296 C183.352945,16.49153 183.47377,15.5690294 183.999026,14.8707473 C184.524283,14.1724653 185.377108,13.800584 186.246214,13.8908429 C250.687065,21.7384407 307.280317,73.0496566 291.328566,141.127567 C286.514366,161.697328 273.324366,178.690395 255.214525,193.600831 C242.798915,203.566623 229.515595,212.400283 215.52379,219.995924 C211.796181,222.078556 207.978023,224.115913 204.144773,226.138178 C170.943398,243.599083 133.923865,258.901899 103.620065,275.940241 L95.9384739,295.136672 C115.6782,278.415253 187.574269,250.390274 220.866193,233.14065 L248.121504,300.222519 C266.850098,346.553529 245.405028,362.761837 245.405028,362.761837 L335.290205,362.761837 L335.290205,362.127992 C326.310742,356.996871 320.636325,351.729925 315.293922,339.430325 Z M166.913959,17.0902481 L74.2670309,287.123068 C65.6648565,262.810606 58.6322016,226.409826 58.6322016,188.107513 C58.6322016,80.746339 102.4882,19.6709005 164.363489,13.8002937 C165.199589,13.734641 166.012572,14.0942802 166.526415,14.7571068 C167.040258,15.4199335 167.185925,16.2968957 166.913959,17.0902481 Z" id="Shape" fill="url(#linearGradient-1)"></path>
        </g>
        <g id="04-black" transform="translate(762.000000, 394.000000)" fill="#000000" fill-rule="nonzero">
            <g id="Layer_1">
                <path d="M7.84,5.85 L1.74,5.85 C1.32578644,5.85 0.99,5.51421356 0.99,5.1 L0.99,1.83 C0.995385812,1.41803794 1.32803794,1.08538581 1.74,1.08 L19.14,1.08 C19.555862,1.079964 19.8945281,1.41417402 19.9,1.83 L19.9,5.1 C19.9000178,5.30065716 19.819629,5.49295386 19.6768064,5.63389717 C19.5339839,5.77484048 19.3406393,5.85267543 19.14,5.85 L13.05,5.85 L13.05,28.19 C13.034586,28.6031834 12.7031834,28.934586 12.29,28.95 L8.59,28.95 C8.17860802,28.9342935 7.85025648,28.6015639 7.84,28.19 L7.84,5.85 Z M41.98,1.85 C41.9953998,1.44233558 42.3223356,1.11539982 42.73,1.1 L46.44,1.1 C46.8519621,1.10538581 47.1846142,1.43803794 47.19,1.85 L47.19,12.4 L60.19,12.4 L60.19,1.83 C60.1954719,1.41417402 60.534138,1.079964 60.95,1.08 L64.61,1.08 C65.0195102,1.09504982 65.3495278,1.42072508 65.37,1.83 L65.37,28.19 C65.354586,28.6031834 65.0231834,28.934586 64.61,28.95 L60.95,28.95 C60.5302636,28.95 60.19,28.6097364 60.19,28.19 L60.19,17.19 L47.19,17.19 L47.19,28.19 C47.190036,28.605862 46.855826,28.9445281 46.44,28.95 L42.73,28.95 C42.3207251,28.9295278 41.9950498,28.5995102 41.98,28.19 L41.98,1.85 Z M90.54,1.85 C90.5453858,1.43803794 90.8780379,1.10538581 91.29,1.1 L107.5,1.1 C107.915862,1.099964 108.254528,1.43417402 108.26,1.85 L108.26,5.12 C108.260018,5.32065716 108.179629,5.51295386 108.036806,5.65389717 C107.893984,5.79484048 107.700639,5.87267543 107.5,5.87 L95.71,5.87 L95.71,12.4 L105.55,12.4 C105.961392,12.4157065 106.289744,12.7484361 106.3,13.16 L106.3,16.46 C106.302675,16.6606393 106.22484,16.8539839 106.083897,16.9968064 C105.942954,17.139629 105.750657,17.2200178 105.55,17.22 L95.71,17.22 L95.71,24.22 L107.5,24.22 C107.919736,24.22 108.26,24.5602636 108.26,24.98 L108.26,28.24 C108.26,28.6597364 107.919736,29 107.5,29 L91.29,29 C90.874174,28.9945281 90.539964,28.655862 90.54,28.24 L90.54,1.85 Z M158.62,1.85 C158.625472,1.43417402 158.964138,1.099964 159.38,1.1 L168.73,1.1 C171.971778,0.991167093 175.014986,2.65852626 176.668109,5.44925231 C178.321232,8.23997835 178.321232,11.7100216 176.668109,14.5007477 C175.014986,17.2914737 171.971778,18.9588329 168.73,18.85 L163.73,18.85 L163.73,28.21 C163.714586,28.6231834 163.383183,28.954586 162.97,28.97 L159.31,28.97 C158.890264,28.97 158.55,28.6297364 158.55,28.21 L158.62,1.85 Z M168.41,14 C169.503523,13.9973685 170.550914,13.5590633 171.320392,12.7820789 C172.089869,12.0050944 172.517985,10.9534974 172.51,9.86 C172.439257,7.66239486 170.608028,5.93389306 168.41,5.99 L163.8,5.99 L163.8,13.99 L168.41,14 Z M200.13,1.85 C200.135386,1.43803794 200.468038,1.10538581 200.88,1.1 L217.09,1.1 C217.505862,1.099964 217.844528,1.43417402 217.85,1.85 L217.85,5.12 C217.850018,5.32065716 217.769629,5.51295386 217.626806,5.65389717 C217.483984,5.79484048 217.290639,5.87267543 217.09,5.87 L205.3,5.87 L205.3,12.4 L215.14,12.4 C215.551392,12.4157065 215.879744,12.7484361 215.89,13.16 L215.89,16.46 C215.892675,16.6606393 215.81484,16.8539839 215.673897,16.9968064 C215.532954,17.139629 215.340657,17.2200178 215.14,17.22 L205.3,17.22 L205.3,24.22 L217.09,24.22 C217.509736,24.22 217.85,24.5602636 217.85,24.98 L217.85,28.24 C217.85,28.6597364 217.509736,29 217.09,29 L200.88,29 C200.464174,28.9945281 200.129964,28.655862 200.13,28.24 L200.13,1.85 Z M241.48,1.85 C241.485472,1.43417402 241.824138,1.099964 242.24,1.1 L253.62,1.1 C255.906183,1.08403151 258.105067,1.97692823 259.732895,3.58225155 C261.360723,5.18757487 262.284142,7.37381649 262.3,9.66 C262.3,13.32 259.87,16.3 256.41,17.66 L261.86,27.77 C262.007547,28.0080566 262.012207,28.3079702 261.872127,28.550496 C261.732048,28.7930217 261.469933,28.9388501 261.19,28.93 L257,28.93 C256.735225,28.9429029 256.486468,28.802977 256.36,28.57 L251.07,18 L246.66,18 L246.66,28.15 C246.644586,28.5631834 246.313183,28.894586 245.9,28.91 L242.24,28.91 C241.820264,28.91 241.48,28.5697364 241.48,28.15 L241.48,1.85 Z M253.18,13.8 C255.402709,13.7671559 257.185718,11.9529443 257.18,9.73 C257.104554,7.57571954 255.335601,5.8686793 253.18,5.87 L246.69,5.86999923 L246.69,13.8 L253.18,13.8 Z M285.94,1.85 C285.94,1.43578644 286.275786,1.1 286.69,1.1 L302.9,1.1 C303.311962,1.10538581 303.644614,1.43803794 303.65,1.85 L303.65,5.12 C303.65,5.53421356 303.314214,5.87 302.9,5.87 L291.11,5.87 L291.11,13.36 L301,13.36 C301.407664,13.3753998 301.7346,13.7023356 301.75,14.11 L301.75,17.38 C301.73495,17.7895102 301.409275,18.1195278 301,18.14 L291.16,18.14 L291.16,28.21 C291.144586,28.6231834 290.813183,28.954586 290.4,28.97 L286.74,28.97 C286.539343,28.9700178 286.347046,28.889629 286.206103,28.7468064 C286.06516,28.6039839 285.987325,28.4106393 285.99,28.21 L285.94,1.85 Z M326.33,1.85 C326.335472,1.43417402 326.674138,1.099964 327.09,1.1 L343.29,1.1 C343.705862,1.099964 344.044528,1.43417402 344.05,1.85 L344.05,5.12 C344.050018,5.32065716 343.969629,5.51295386 343.826806,5.65389717 C343.683984,5.79484048 343.490639,5.87267543 343.29,5.87 L331.51,5.87 L331.51,12.4 L341.34,12.4 C341.753183,12.415414 342.084586,12.7468166 342.1,13.16 L342.1,16.46 C342.1,16.8797364 341.759736,17.22 341.34,17.22 L331.51,17.22 L331.51,24.22 L343.29,24.22 C343.709736,24.22 344.05,24.5602636 344.05,24.98 L344.05,28.24 C344.05,28.6597364 343.709736,29 343.29,29 L327.09,29 C326.670264,29 326.33,28.6597364 326.33,28.24 L326.33,1.85 Z M379.9,0.7 C383.476866,0.606065015 386.944525,1.93701276 389.54,4.4 C389.702728,4.54056693 389.796265,4.74496609 389.796265,4.96 C389.796265,5.17503391 389.702728,5.37943307 389.54,5.52 L387.11,8.02 C386.988553,8.17199889 386.804559,8.26050031 386.61,8.26050031 C386.415441,8.26050031 386.231447,8.17199889 386.11,8.02 C384.414097,6.52772509 382.23885,5.69382108 379.98,5.67 C375.043897,5.89971044 371.16,9.96855447 371.16,14.91 C371.16,19.8514455 375.043897,23.9202896 379.98,24.15 C382.212806,24.1277698 384.367395,23.3246637 386.07,21.88 C386.352907,21.620703 386.787093,21.620703 387.07,21.88 L389.54,24.43 C389.833611,24.7262408 389.833611,25.2037592 389.54,25.5 C386.950195,28.0152859 383.469972,29.4030608 379.86,29.36 C374.740384,29.3600004 370.009663,26.628718 367.449855,22.1950003 C364.890047,17.7612827 364.890047,12.2987173 367.449855,7.86499965 C370.009663,3.43128204 374.740384,0.699999568 379.86,0.7 L379.9,0.7 Z M416.48,5.87 L410.39,5.87 C410.189361,5.87267543 409.996016,5.79484048 409.853194,5.65389717 C409.710371,5.51295386 409.629982,5.32065716 409.63,5.12 L409.63,1.85 C409.635472,1.43417402 409.974138,1.099964 410.39,1.1 L427.79,1.1 C428.201962,1.10538581 428.534614,1.43803794 428.54,1.85 L428.54,5.12 C428.54,5.53421356 428.204214,5.87 427.79,5.87 L421.69,5.87 L421.69,28.21 C421.67495,28.6195102 421.349275,28.9495278 420.94,28.97 L417.24,28.97 C416.824699,28.959481 416.490519,28.6253013 416.48,28.21 L416.48,5.87 Z M477.35,1.87 C477.370472,1.46072508 477.70049,1.13504982 478.11,1.12 L481.81,1.12 C482.225862,1.119964 482.564528,1.45417402 482.57,1.87 L482.57,12.42 L495.57,12.42 L495.57,1.83 C495.575472,1.41417402 495.914138,1.079964 496.33,1.08 L500,1.08 C500.40951,1.09504982 500.739528,1.42072508 500.76,1.83 L500.76,28.19 C500.744586,28.6031834 500.413183,28.934586 500,28.95 L496.3,28.95 C495.880264,28.95 495.54,28.6097364 495.54,28.19 L495.54,17.19 L482.54,17.19 L482.54,28.19 C482.54,28.6097364 482.199736,28.95 481.78,28.95 L478.08,28.95 C477.666817,28.934586 477.335414,28.6031834 477.32,28.19 L477.35,1.87 Z M538.21,0.72 C546.124195,0.697939569 552.557807,7.09576797 552.579888,15.0099631 C552.601969,22.9241582 546.204158,29.3577869 538.289962,29.3798885 C530.375767,29.40199 523.942122,23.004195 523.92,15.09 C523.893377,11.2809192 525.386526,7.61841569 528.068733,4.91368469 C530.75094,2.2089537 534.40083,0.685230758 538.21,0.68 L538.21,0.72 Z M538.21,24.21 C541.922104,24.226175 545.27695,22.0003631 546.704992,18.5738963 C548.133035,15.1474296 547.35189,11.197868 544.727011,8.57298884 C542.102132,5.9481097 538.15257,5.1669647 534.726104,6.59500757 C531.299637,8.02305044 529.073825,11.3778956 529.09,15.09 C529.144447,20.0975914 533.202218,24.1375647 538.21,24.17 L538.21,24.21 Z M575.71,1.87 C575.71,1.45578644 576.045786,1.12 576.46,1.12 L580.12,1.12 C580.52951,1.13504982 580.859528,1.46072508 580.88,1.87 L580.88,24.21 L591,24.21 C591.419736,24.21 591.76,24.5502636 591.76,24.97 L591.76,28.23 C591.76,28.6497364 591.419736,28.99 591,28.99 L576.46,28.99 C576.259343,28.9900178 576.067046,28.909629 575.926103,28.7668064 C575.78516,28.6239839 575.707325,28.4306393 575.71,28.23 L575.71,1.87 Z M613.71,1.87 C613.730472,1.46072508 614.06049,1.13504982 614.47,1.12 L618.17,1.12 C618.57951,1.13504982 618.909528,1.46072508 618.93,1.87 L618.93,28.23 C618.914586,28.6431834 618.583183,28.974586 618.17,28.99 L614.47,28.99 C614.056817,28.974586 613.725414,28.6431834 613.71,28.23 L613.71,1.87 Z M644.11,1.87 C644.104251,1.46887771 644.419165,1.13622218 644.82,1.12 L654.26,1.12 C659.3275,0.984237679 664.069261,3.61014111 666.643014,7.97749536 C669.216768,12.3448496 669.216768,17.7651504 666.643014,22.1325046 C664.069261,26.4998589 659.3275,29.1257623 654.26,28.99 L644.82,28.99 C644.415194,28.9737327 644.098724,28.634976 644.11,28.23 L644.11,1.87 Z M653.78,24.13 C658.805791,24.13 662.88,20.0557912 662.88,15.03 C662.88,10.0042088 658.805791,5.93 653.78,5.93 L649.24,5.93 L649.24,24.13 L653.78,24.13 Z M687.57,27.95 L700,1.12 C700.114866,0.847660871 700.384506,0.673187745 700.68,0.68 L701.08,0.68 C701.375227,0.665459358 701.646034,0.843302726 701.75,1.12 L714,27.91 C714.100952,28.1349188 714.078002,28.3961063 713.939372,28.5999731 C713.800743,28.8038399 713.566281,28.9211998 713.32,28.91 L709.85,28.91 C709.329734,28.9345241 708.85794,28.6063198 708.7,28.11 L706.7,23.81 L694.8,23.81 L692.8,28.11 C692.630868,28.5979536 692.166314,28.9211215 691.65,28.91 L688.19,28.91 C687.961559,28.8884566 687.757611,28.757842 687.642489,28.5593562 C687.527368,28.3608704 687.515265,28.1189856 687.61,27.91 L687.57,27.95 Z M704.77,19.47 L700.77,10.71 L700.65,10.71 L696.75,19.47 L704.77,19.47 Z M738.77,15.57 L729.69,2.27 C729.536243,2.03929896 729.52434,1.74200537 729.65916,1.49975019 C729.793981,1.25749501 730.052905,1.1109227 730.33,1.12 L734.39,1.12 C734.64953,1.12753862 734.888787,1.26212073 735.03,1.48 L741.4,10.63 L747.77,1.48 C747.911213,1.26212073 748.15047,1.12753862 748.41,1.12 L752.51,1.12 C752.788403,1.10722413 753.049788,1.2540789 753.183689,1.49850092 C753.31759,1.74292295 753.300639,2.04225729 753.14,2.27 L744,15.49 L744,28.19 C743.984586,28.6031834 743.653183,28.934586 743.24,28.95 L739.58,28.95 C739.160264,28.95 738.82,28.6097364 738.82,28.19 L738.77,15.57 Z" id="Shape"></path>
            </g>
        </g>
    </g>
</svg>